<svg id="svg8" xmlns="http://www.w3.org/2000/svg" xmlns:xlink="http://www.w3.org/1999/xlink" viewBox="0 0 32 32"><defs><style>.cls-1{fill:#a6e6da;}.cls-2{fill:url(#linear-gradient);}.cls-3{fill:url(#linear-gradient-2);}.cls-4{fill:url(#linear-gradient-3);}.cls-5{fill:url(#linear-gradient-4);}</style><linearGradient id="linear-gradient" x1="-415.66" y1="277.46" x2="-415.66" y2="282.42" gradientTransform="matrix(3.82, -0.48, 0, -3.82, 1596.85, 882.14)" gradientUnits="userSpaceOnUse"><stop offset="0" stop-color="#008a5f"/><stop offset="1" stop-color="#00a774"/></linearGradient><linearGradient id="linear-gradient-2" x1="-413.04" y1="277.46" x2="-413.04" y2="282.42" xlink:href="#linear-gradient"/><linearGradient id="linear-gradient-3" x1="-414.35" y1="276.34" x2="-414.35" y2="281.31" gradientTransform="matrix(3.82, -0.48, 0, -3.82, 1596.85, 882.14)" gradientUnits="userSpaceOnUse"><stop offset="0" stop-color="#7bbf1f"/><stop offset="1" stop-color="#b3e82a"/></linearGradient><linearGradient id="linear-gradient-4" x1="-411.73" y1="276.35" x2="-411.73" y2="281.31" xlink:href="#linear-gradient-3"/></defs><g id="layer1"><g id="g8809"><polygon id="rect8797" class="cls-1" points="6 2.92 11 2.28 11 30.36 6 31 6 2.92"/><polygon id="rect8799" class="cls-1" points="16 1.64 21 1 21 29.09 16 29.72 16 1.64"/><polygon id="rect8801" class="cls-2" points="6 2.92 11 2.28 11 21.23 6 21.87 6 2.92"/><polygon id="rect8803" class="cls-3" points="16 1.64 21 1 21 19.95 16 20.59 16 1.64"/><polygon id="rect8805" class="cls-4" points="11 6.53 16 5.89 16 24.85 11 25.48 11 6.53"/><polygon id="rect8807" class="cls-5" points="21 5.26 26 4.62 26 23.57 21 24.21 21 5.26"/></g></g></svg>